<svg xmlns="http://www.w3.org/2000/svg" viewBox="0 0 304.134 304.134"><path d="M203.476 67.65c-1.98 0-3.91-.8-5.301-2.189a7.555 7.555 0 0 1-2.199-5.311c0-1.97.8-3.899 2.199-5.3a7.506 7.506 0 0 1 5.301-2.189c1.97 0 3.91.79 5.3 2.189a7.55 7.55 0 0 1 2.2 5.3 7.56 7.56 0 0 1-2.2 5.311 7.582 7.582 0 0 1-5.3 2.189zM233.126 105.41c-1.98 0-3.91-.8-5.311-2.2a7.538 7.538 0 0 1-2.189-5.3c0-1.971.799-3.9 2.199-5.3a7.512 7.512 0 0 1 5.301-2.2c1.969 0 3.909.8 5.299 2.2a7.527 7.527 0 0 1 2.201 5.3 7.513 7.513 0 0 1-7.5 7.5zM191.687 112.91c-1.98 0-3.91-.801-5.311-2.19a7.573 7.573 0 0 1-2.189-5.3c0-1.98.799-3.92 2.189-5.311a7.555 7.555 0 0 1 5.311-2.199c1.969 0 3.909.8 5.299 2.199a7.537 7.537 0 0 1 2.201 5.311c0 1.97-.801 3.899-2.201 5.3a7.56 7.56 0 0 1-5.299 2.19z"/><path d="M296.632 99.966L198.861 2.195A7.507 7.507 0 0 0 192.09.144a7.495 7.495 0 0 0-5.465 4.494l-41.871 101.509c-10.092-3.702-21.184-5.709-32.68-5.709-41.205 0-75.232 25.801-79.622 58.848h-5.565c-11.9 0-21.582 9.682-21.582 21.582 0 9.445 6.107 17.473 14.573 20.391 18.917 71.076 53.151 99.945 54.628 101.163a7.506 7.506 0 0 0 4.77 1.712H199.66c1.74 0 3.426-.605 4.77-1.712 1.477-1.218 35.711-30.087 54.63-101.163 8.466-2.919 14.573-10.946 14.573-20.391 0-11.9-9.682-21.582-21.582-21.582h-6.715a63.081 63.081 0 0 0-18.889-19.137l67.743-27.946a7.499 7.499 0 0 0 2.442-12.237zm-184.558 15.473c24.831 0 47.176 10.885 58.316 28.407a7.5 7.5 0 0 0 8.465 3.165 47.465 47.465 0 0 1 13.518-1.967c12.924 0 25.059 5.255 33.914 14.242H47.626c4.5-24.752 31.68-43.847 64.448-43.847zm84.658 173.695H82.202c-6.87-6.701-31.178-33.273-46.439-86.684h207.41c-15.263 53.41-39.57 79.983-46.441 86.684zm55.318-114.848a6.59 6.59 0 0 1 6.582 6.582 6.59 6.59 0 0 1-6.582 6.582H26.886a6.59 6.59 0 0 1-6.582-6.582 6.59 6.59 0 0 1 6.582-6.582H252.05zm-44.797-42.447a62.515 62.515 0 0 0-27.34-.539c-5.697-7.482-13.059-13.822-21.564-18.777l37.856-91.771 81.872 81.871-70.824 29.216z"/></svg>