<svg xmlns="http://www.w3.org/2000/svg" viewBox="0 0 307.09 307.09"><path d="M253.641 272.134c17.922-48.311 17.922-188.87.001-237.178L258.9 7.113A5.998 5.998 0 0 0 253.005 0H54.091a6 6 0 0 0-5.895 7.112l5.254 27.843c-17.923 48.306-17.923 188.865-.002 237.178l-5.259 27.844a5.998 5.998 0 0 0 5.895 7.113h198.934a6 6 0 0 0 5.784-7.604l-5.161-27.352zM245.766 12l-3.306 17.502H64.631L61.329 12h184.437zM63.856 41.502h179.376c15.81 46.859 15.81 177.222 0 224.086H63.857c-15.809-46.864-15.809-177.227-.001-224.086zM61.324 295.09l3.306-17.502h177.829l3.302 17.502H61.324z"/><path d="M90.81 201.64l.05.009c.117.016.229.041.348.056.467.058.945.086 1.465.086 4.005 0 9.993-1.793 19.434-4.719 9.128-2.83 19.475-6.037 26.243-6.417a35.03 35.03 0 0 1 1.964-.054c5.491 0 10.985 1.275 16.802 2.626 6.976 1.619 14.882 3.455 24.263 3.455 7.653 0 26.804-1.405 39.301-14.426 7.393-7.702 10.886-17.837 10.382-30.123-1.382-33.629-37.866-48.176-56.172-48.176-27.818 0-43.311 22.911-48.825 37.854-37.452 5.466-50.081 35.789-50.081 43.809-.003 8.62 5.671 14.721 14.826 16.02zm84.078-85.683c12.559 0 43.108 10.551 44.182 36.668.365 8.895-2.007 16.068-7.049 21.321-9.561 9.961-25.872 10.735-30.644 10.735-8.006 0-14.891-1.599-21.549-3.145-6.219-1.443-12.649-2.937-19.516-2.937-.883 0-1.77.025-2.637.073-5.018.281-11.092 1.668-17.285 3.393 9.676-13.714 14.996-30.023 15.913-32.979.009-.029.014-.059.023-.089.006-.019.016-.036.02-.055.385-1.344 9.751-32.985 38.542-32.985zM121.35 155c-5.723 13.707-16.432 32.816-29.379 34.684-3.983-.712-3.989-2.711-3.99-4.019.169-3.17 7.885-24.031 33.369-30.665z"/></svg>